<svg xmlns="http://www.w3.org/2000/svg" height="195.57" width="500" version="1.0"><path d="M-.02 195.592h500V-.006h-500v195.598z"/><path d="M52.666 100.25c11.62 0 23.06 3.91 23.06 15.457 0 9.038-8.894 14.203-14.13 15.494 10.329 1.255 20.622 6.383 20.622 16.676 0 12.84-10.293 19.26-23.168 19.26H25.66v-2.511h5.129c3.837-1.255 3.837-1.255 3.837-5.164V108.032c0-3.873 0-3.873-3.837-3.873l-5.129-1.255v-2.654h27.006zm-7.747 3.91v27.04h6.492c8.93 0 14.13-3.908 14.13-14.201 0-7.711-5.2-14.095-14.13-14.095-2.654 0-6.492 1.255-6.492 1.255zm0 29.551v23.24c0 6.42 3.838 7.675 11.584 7.675 10.33 0 15.422-6.42 15.422-16.749 0-10.293-10.329-14.166-20.514-14.166h-6.492zm57.813 12.911v12.84c0 3.909 1.291 3.909 3.945 5.164h3.838v2.51H87.347v-2.51h2.546c3.909-1.255 3.909-1.255 3.909-5.164V106.67c0-3.766-1.255-5.165-5.2-5.165h-3.838v-2.51c6.384 0 12.875-1.255 17.968-2.51v50.137zm36.043 15.35c-3.801 2.654-7.746 5.164-12.839 5.164-6.491 0-10.329-5.164-10.329-10.185 0-10.329 11.62-12.947 23.168-14.202V131.2c0-3.91-2.51-6.456-6.455-6.456-3.837 0-5.093 1.291-6.384 3.802-1.29 3.909-2.546 5.164-5.128 5.164-2.618 0-3.91-1.255-3.91-2.51 0-5.165 10.33-9.074 16.677-9.074 10.329 0 14.13 2.618 14.13 10.329v24.495c0 2.51 1.4 3.766 3.946 3.766s3.837-1.255 5.092-1.255l1.291 1.255c-3.837 3.909-7.639 6.42-12.875 6.42-3.801 0-5.092-2.511-6.384-5.165zm0-16.713c-7.746 0-15.385 2.618-15.385 9.038 0 3.91 3.837 7.675 7.639 7.675 3.945 0 6.491-1.255 7.746-2.51v-14.203zm57.85-16.712c0 2.654-1.292 3.909-3.802 3.909-2.69 0-3.946-2.546-5.237-3.91-1.255-2.51-3.837-3.8-6.383-3.8-7.747 0-12.876 6.455-12.876 16.748 0 11.548 6.384 19.223 16.713 19.223 5.093 0 9.038-1.255 11.584-3.766l1.291 1.255c-5.092 6.42-11.584 8.93-17.968 8.93-11.62 0-19.366-10.185-19.366-21.877 0-12.803 7.746-23.132 21.913-23.132 7.639 0 14.13 2.618 14.13 6.42zm20.513 18.075v12.84c0 3.909 1.291 3.909 3.945 5.164h3.838v2.51h-24.46v-2.51h3.802c3.945-1.255 3.945-1.255 3.945-5.164V106.67c0-3.766-1.255-5.165-5.2-5.165h-3.838v-2.51c6.492 0 12.876-1.255 17.968-2.51V144.003l16.82-15.457c1.256-1.255 0-2.51-1.398-3.802h-3.802v-2.618h19.331v2.618c-5.2 0-6.491 1.291-9.038 3.802l-14.13 12.947 17.968 19.223c2.546 2.654 3.837 3.909 7.746 3.909v2.51h-21.877v-2.51h3.802c1.399 0 1.399-1.255 0-2.654l-6.384-7.675c-5.093-5.128-7.747-9.038-9.038-9.038v1.363zm42.427 19.26s-1.29 0-2.546 1.254h-1.255v-15.35h1.255c2.546 8.93 6.491 12.84 12.875 12.84 6.456 0 9.038-2.654 9.038-6.42 0-3.909-1.291-6.42-10.329-9.037-6.384-2.547-11.584-6.42-11.584-14.095 0-9.038 7.783-12.947 15.422-12.947 5.2 0 7.746 1.255 9.037 1.255l2.547-1.255h1.255v14.202h-2.546c-1.256-7.782-3.802-11.584-10.293-11.584-5.129 0-8.93 2.547-8.93 6.456 0 5.128 2.546 6.383 10.185 8.93 7.782 3.873 12.875 6.491 12.875 12.91 0 10.33-7.639 14.095-16.677 14.095-5.092 0-7.675-1.255-10.329-1.255zm38.59-7.676v-30.914h-5.093v-1.256c5.093-3.909 8.93-7.675 12.84-14.202h1.29v11.548h14.167v3.91h-14.166v28.296c0 5.129 2.546 6.384 6.384 6.384 2.546 0 3.837 0 7.782-2.51v1.255c-3.945 5.164-7.782 6.42-12.875 6.42-6.491 0-10.329-3.766-10.329-8.93zm27.006-12.947c0-14.058 11.584-23.132 23.204-23.132 11.44 0 23.06 9.074 23.06 23.132 0 12.947-11.62 21.877-23.06 21.877-11.62 0-23.204-7.674-23.204-21.877zm36.043 0c0-11.548-5.2-20.514-14.13-20.514-7.783 0-11.584 8.966-11.584 19.26 0 11.583 3.801 20.62 12.875 20.62 8.93 0 12.839-9.037 12.839-19.366zm50.066-7.675c0-6.383-2.546-10.292-7.639-10.292-6.491 0-9.038 2.618-11.584 3.909v28.261c0 3.909 1.291 3.909 3.802 5.164h3.837v2.51h-24.352v-2.51h3.838c3.837-1.255 3.837-1.255 3.837-5.164V135.074c0-5.164-1.29-7.782-5.128-7.782h-2.547v-2.547c6.384 0 11.477-1.363 16.713-3.873v7.675c5.093-3.802 10.185-6.42 16.677-6.42 7.639 0 12.875 5.165 12.875 12.947V159.462c0 3.909 0 3.909 3.802 5.164h2.582v2.51h-23.097v-2.51h2.583c3.801-1.255 3.801-1.255 3.801-5.164v-21.878zm20.514 7.675c0-11.548 7.783-23.132 20.622-23.132 10.329 0 16.713 7.783 17.968 18.004h-30.807c0 11.656 5.093 20.586 16.677 20.586 6.491 0 11.584-2.51 12.875-3.766l1.255 1.255c-5.093 5.165-11.584 8.93-19.223 8.93-11.584 0-19.367-10.185-19.367-21.877zm9.038-7.675h20.658c0-6.383-3.945-12.839-10.33-12.839-6.49 0-10.328 6.456-10.328 12.84z" fill="#fff"/></svg>
