<svg version="1.1" id="layer" xmlns="http://www.w3.org/2000/svg" x="0" y="0" viewBox="0 0 652 869" height="652" width="869" xml:space="preserve"><style>.st0{fill:#00a0dd}.st1{fill:#1d2758}.st2{fill:#8e9092}</style><path class="st0" d="M322.6 421.8v69.5c0 14.5-2.9 23.8-11.1 31-7.8 7.1-18.9 11.5-31.8 11.5-13.9 0-25-5.1-32.1-12.2-7.1-6.9-10.7-17.3-10.7-30.2v-69.6h20.8l-.1 69.2c0 15 10 24 22.1 24 5.9 0 13.1-2.3 17.5-7.4 3.5-4.2 4.4-7.7 4.4-16.2l.1-69.6h20.9zM219.2 476.9c0 31.1-23.8 56.9-56 56.9-33.3 0-55.3-24.7-55.3-57.4 0-34.7 23.8-57.2 56-57.2 32.8.1 55.3 25 55.3 57.7m-90.2-.2c0 23.5 14.8 37.9 34.6 37.9 19.1 0 34.4-14.8 34.4-37.9 0-21.6-12.7-38.1-34.1-38.1-21.9 0-34.9 16.6-34.9 38.1M67.8 421.9v12.2c2.5-4.4 4.3-5.9 8.5-9.1 4.8-3.2 11.8-5.7 19.6-5.7h6v21.2c-2.6-.5-5.3-.5-6.5-.5-9.9.1-17.2 4.7-22.5 12.6-3.7 6-5 10.9-5 23.1l-.2 55.6H47V421.8l20.8.1zM7.5 421.9h20.7v108.5c-.4 21.6-5.9 32.4-15.7 41.2-9.5 9.2-23 13.5-39.1 13.5-23 0-37.9-8.1-49.4-21l14.3-14.2c4.8 5.1 7.6 7.8 10.6 9.9 6 3.7 16.9 6.3 24.8 6.2 11.1-.2 20.1-3.7 26.2-9.8 4.2-4.9 7.6-12.4 7.6-23.4v-18.2c-8.6 11.7-20.3 19.5-37.9 19.4-30.1-.3-50.4-25.5-50.4-57.1 0-16.4 6-33.5 16.6-43.6 8.5-8.8 20.4-13.8 34-13.8 16.1 0 26.8 4.4 37.7 17.7v-15.3zm-66.6 54.3c0 22.8 14.5 38.2 33.6 38.2 10.1 0 18.2-4.6 25.2-12.3 5.4-6.4 7.3-16.2 7.3-26.9 0-13.8-2.9-19.8-9.1-26.8-5.9-5.4-13.9-9.9-23.4-9.9-18.9.1-33.6 14.7-33.6 37.7M361 437.6c11.6-16.1 25.5-18.3 37.1-18.3 29.5 0 51.6 22.5 51.6 56.5 0 33.4-20.3 57.9-51.6 58-8.3 0-15.9-1.7-23.3-5.3-6.5-3.1-10.4-6.2-13.9-10.9v63.5h-20.7V421.8H361v15.8zm-.2 40.7c0 23.3 14.6 37.1 33.5 37.1 20 0 33.3-15.3 33.3-39.5 0-12.4-2.7-20.5-8.9-27.5-7.2-7.1-16.1-10.2-23.8-10.2-19.3 0-34.1 15.2-34.1 40.1"/><path class="st1" d="M139.2 281.6v68.5c0 15.7-3.1 24.4-12.2 32.1-8.8 7.4-21.7 10.9-34.6 10.9-14.8 0-27.5-4-36.1-11.9-7-6.4-11.2-16.4-11.2-31l.1-68.5h27.2v66.6c0 12.4 7.5 22.3 20 22.3 12.7 0 19.5-8.7 19.5-20.4v-68.4l27.3-.2zM185.4 281.6v23.1c3.1-8.1 6.1-17.6 11.5-21.3 4-3.1 10-5.3 15-5.5.7 0 3.8-.2 5-.1v28c-2.4-.2-4-.3-5.6-.3-8.8 0-16.6 4.5-20.9 10.7-3.6 5-4.8 9.6-4.8 21.1l-.1 51.7H158V281.6h27.4zM315.4 281.6h27.2l.1 107.5h-27.3l.1-18.3C303.9 387 291.7 393 275.4 393c-29.1 0-51.7-22.7-51.7-56.4 0-34.9 23.6-59 54.1-59 15.1 0 26.5 5.9 37.6 20.7v-16.7zm-62.2 54.6c0 19.4 12.4 35.4 30.6 35.4 18.6 0 32.1-17.3 32.1-36.4 0-19.6-12.4-35-31.9-35-18.9.1-30.8 15.7-30.8 36M589.1 281.6h27.2l.1 107.5h-27.3l.1-18.3C577.6 387 565.4 393 549.1 393c-29.1 0-51.7-22.7-51.7-56.4 0-34.9 23.6-59 54.1-59 15.1 0 26.5 5.9 37.6 20.7v-16.7zm-62.3 54.6c0 19.4 12.4 35.4 30.6 35.4 18.6 0 32.1-17.3 32.1-36.4 0-19.6-12.4-35-31.9-35-18.8.1-30.8 15.7-30.8 36M412 310.6v-.9c0-6.7-6.2-12.6-15.6-12.6-9.2 0-13.7 5.6-13.7 11.6 0 2.9.8 5.9 3.9 8.6 3.3 2.6 4.3 2.9 19.7 7.6 24.9 7.6 33.2 17.6 33.2 33.8 0 19.9-15.7 34.3-41.6 34.3-20.4 0-39.4-8.5-41.8-33.3h26.2c1.4 9.6 7.1 13.9 16.2 13.9 8.4 0 13.4-5.8 13.4-12.1 0-7.9-5.4-11.3-21.7-16.3-22.4-6.8-33.6-16.4-33.6-33.9 0-21 17.6-33.6 41.3-33.6 21.2 0 38.1 9.9 39.8 32.8H412zM455.7 281.5h27.5v107.8h-27.5z"/><g><path class="st1" d="M-55.6 341c2.6 15.3 12.4 28 30.6 28 11.2 0 21.9-5.1 26.7-14l24.9 6.8c-10.2 19.8-29.9 31.1-51.4 31.1-33.5 0-58.6-23.2-58.6-57.6 0-34.6 24.1-57.5 56.7-57.5 34.5 0 57.4 24.2 58.5 57.2l-.3 6.1h-87.1zm58.5-18.3C0 310.6-7.6 300.3-26.3 300.3c-16.9 0-25.9 10.8-28.3 22.4H2.9z"/><path class="st2" d="M483.9 437v8.7c4.6-7.1 9.5-9.9 17.5-9.9 13.3 0 22.6 10.2 22.6 24.8 0 15.1-9.3 25.5-22.6 25.5-3.7 0-7.2-.8-10.5-2.5-2.9-1.5-4.4-2.7-7-6.1v23.4H476V437h7.9zm0 24.8c0 10.5 6.3 17.5 15.8 17.5s15.8-7.4 15.8-18.3c0-5.6-1.4-9.9-4.2-13-2.8-3.1-7.1-5-11.3-5-9.6-.1-16.1 7.5-16.1 18.8M578.8 461.1c0 14-10.8 25-24.5 25-14.2 0-24.2-10.4-24.2-25.2 0-14.9 10-25.1 24.5-25.1 14.1.1 24.2 10.6 24.2 25.3m-40.6-.1c0 10.6 6.6 17.8 16.3 17.8 9.5 0 16.2-7.4 16.2-17.8 0-10.7-6.4-17.9-16.1-17.9-9.9 0-16.4 7.2-16.4 17.9"/></g><path class="st2" d="M586.5 415.6h7.9V485h-7.9z"/><g><path class="st2" d="M614.9 423.6c0 2.8-2.3 5-5.1 5s-5-2.2-5-5.1c0-2.9 2.2-5.1 5.1-5.1 2.8 0 5 2.3 5 5.2m-1.1 61.4h-7.9v-48h7.9v48zM636.2 475.2c.1 2.4.7 2.9 3.6 2.9h3.6v6.9H636c-5.6-.1-7.8-2.2-7.8-7.5V444h-6.7v-7h6.7v-15.1h7.9V437h7.3v7h-7.3v31.2zM663 423.6c0 2.8-2.3 5-5.1 5s-5-2.2-5-5.1c0-2.9 2.2-5.1 5.1-5.1 2.8 0 5 2.3 5 5.2m-1.1 61.4H654v-48h7.9v48zM711.9 479c-5.4 4.9-10.7 7.1-17.7 7.1-13.7 0-23.5-10.4-23.5-25 0-14.9 9.9-25.3 23.9-25.3 6.9 0 12.5 2.3 17.5 7.2l-5.1 5.1c-3.6-3.3-7.7-5-12.2-5-9.5 0-16 7.3-16 17.7 0 10.6 6.6 18 15.9 18 4.7 0 8.4-1.6 12.3-5.2l4.9 5.4zM744.3 450.1v-.5c0-4.5-3.6-7.3-9.2-7.3-5.3 0-8.6 2.7-8.6 6.9s2.1 5.7 10.7 8.1c6.1 1.7 9.4 3.2 11.6 5.5 2.4 2.4 3.8 5.8 3.8 9.4 0 8.3-6.9 13.9-17.1 13.9-10.9 0-17-5.1-17.9-14.8h7.8c.5 5.4 4.1 8.3 10.1 8.3 5.4 0 8.9-2.8 8.9-7.1 0-4.2-2.7-6.2-10.9-8.3-10.4-2.8-15.1-7.2-15.1-14.5 0-8.3 6.8-13.9 16.8-13.9 10.2 0 16.3 5.2 16.7 14.3h-7.6zM483.8 581.1h-7.9v-41h-6.6v-7h6.6v-6.5c0-9.5 4.9-15.1 13.2-15.1.4 0 1.4 0 2.2.1v7.1c-5.7.6-7.3 2.3-7.5 7.9v6.5h7.5v7h-7.5v41zM510.3 519.7c0 2.8-2.3 5-5.1 5s-5-2.2-5-5.1c0-2.9 2.2-5.1 5.1-5.1 2.9 0 5 2.3 5 5.2m-1.1 61.4h-7.9v-48h7.9v48zM528.3 533.1v8.1c1.5-3.4 2.5-4.9 4.4-6.3 2.4-1.9 5.7-2.9 9.1-2.9h1.9v8c-.8-.1-1.7-.1-2.2-.1-4.3 0-8 2-10.4 5.5-2.1 3-2.8 5.8-2.8 11.3V581h-7.9v-48h7.9zM573.9 546.2v-.5c0-4.5-3.6-7.3-9.2-7.3-5.3 0-8.6 2.7-8.6 6.9s2.1 5.7 10.7 8.1c6.1 1.7 9.4 3.2 11.6 5.5 2.4 2.4 3.8 5.8 3.8 9.4 0 8.3-6.9 13.9-17.1 13.9-10.9 0-17-5.1-17.9-14.8h7.8c.5 5.4 4.1 8.3 10.1 8.3 5.4 0 8.9-2.8 8.9-7.1 0-4.2-2.7-6.2-10.9-8.3-10.4-2.8-15.1-7.2-15.1-14.5 0-8.3 6.8-13.9 16.8-13.9 10.2 0 16.3 5.2 16.7 14.3h-7.6zM601.6 571.3c.1 2.4.7 2.9 3.6 2.9h3.6v6.9h-7.4c-5.6-.1-7.8-2.2-7.8-7.5v-33.5h-6.7v-7h6.7V518h7.9v15.1h7.3v7h-7.3v31.2z"/><path d="M481.2 265.1C525 247.9 547 199.5 530.3 157c-16.7-42.6-65.7-63.2-109.5-46l10.1 25.9c29.1-11.4 61.6 2.3 72.6 30.5 11.1 28.2-3.5 60.4-32.6 71.7l10.3 26z" fill="#3c5daa"/><path d="M398.3 198.9l23.4-9.2-10.6-26.8-25.6 10.1c.6 3.3 1.5 6.5 2.7 9.7 2.5 6.1 5.9 11.5 10.1 16.2" fill="#1a5091"/><path class="st1" d="M460.9 213.2c-22.7 8.9-47.6 2.4-62.6-14.3-4.2-4.7-7.7-10.1-10.1-16.2-1.2-3.2-2.1-6.5-2.7-9.7-4.8-25.5 9.6-51.9 35.4-62l-10.2-26c-43.8 17.1-65.8 65.5-49.1 108.1 16.7 42.6 65.7 63.2 109.5 46l-10.2-25.9z"/></g><path transform="rotate(-21.503 469.04 194.502)" class="st0" d="M454.6 180.1h28.8v28.8h-28.8z"/></svg>
