<svg xmlns="http://www.w3.org/2000/svg" id="Layer_1" data-name="Layer 1" viewBox="0 0 428.78 116.04" height="116" width="429"><defs><style>.cls-1{fill:#133459}.cls-2{fill:#00a7db}.cls-7{fill:#003259}.cls-8{fill:#1c365e}</style></defs><path class="cls-1" d="M11.48 76.05a.69.69 0 01.7-.69h15.08a.69.69 0 01.69.69v4a.68.68 0 01-.69.69H17.17V86h8.3a.72.72 0 01.7.69v4a.72.72 0 01-.7.7h-8.3v8.85a.72.72 0 01-.69.69h-4.3a.69.69 0 01-.7-.69z" transform="translate(-11.48 -8.57)"/><rect class="cls-1" x="23.56" y="66.79" width="5.76" height="25.5" rx=".69"/><path class="cls-1" d="M50.07 75.65a.69.69 0 01.69-.66h.91L66.21 89V76.05a.69.69 0 01.69-.69h4.37a.71.71 0 01.69.69v24.52a.68.68 0 01-.69.66h-.58a1 1 0 01-.47-.19L55.87 86.58v13.59a.69.69 0 01-.69.69H50.8a.72.72 0 01-.69-.69zM78.05 99.92l11.4-24.52a.73.73 0 01.62-.4h.36a.74.74 0 01.62.4l11.4 24.52a.64.64 0 01-.61.94h-4c-.66 0-1-.22-1.28-.91l-1.36-2.88h-9.91L84 100a1.34 1.34 0 01-1.31.87h-4a.64.64 0 01-.62-.94m15-7.8l-2.77-6-2.73 6zM108.45 75.65a.69.69 0 01.69-.66h.92l14.53 14V76.05a.69.69 0 01.69-.69h4.37a.71.71 0 01.69.69v24.52a.68.68 0 01-.69.66h-.58a1 1 0 01-.47-.19l-14.35-14.46v13.59a.69.69 0 01-.69.69h-4.34a.72.72 0 01-.69-.69zM151 75a12.25 12.25 0 018.81 3.39.68.68 0 010 1L157 82.35a.63.63 0 01-.91 0 7.45 7.45 0 00-4.92-1.85 7.46 7.46 0 000 14.9 7.7 7.7 0 004.88-1.75.72.72 0 011 0l2.84 3a.72.72 0 010 1 12.49 12.49 0 01-8.85 3.54A13.12 13.12 0 11151 75M167.27 76.05a.69.69 0 01.7-.69h15.08a.69.69 0 01.69.69v4a.68.68 0 01-.69.69H173v4.52h8.3a.72.72 0 01.7.7v4a.69.69 0 01-.7.69H173v4.92h10.09a.68.68 0 01.69.69v4a.69.69 0 01-.69.69H168a.69.69 0 01-.7-.69zM258.81 99.92l11.41-24.52a.73.73 0 01.62-.4h.36a.74.74 0 01.62.4l11.4 24.52a.64.64 0 01-.62.94h-4c-.66 0-.95-.22-1.28-.91L276 97.07h-9.91l-1.34 2.93a1.34 1.34 0 01-1.31.87h-4a.64.64 0 01-.62-.94m15-7.8l-2.77-6-2.73 6zM291.78 75.58a.68.68 0 01.65-.58h.57a.79.79 0 01.62.36l8.46 15.74h.07l8.45-15.74a.8.8 0 01.62-.36h.58a.69.69 0 01.66.58l4.11 24.48a.66.66 0 01-.69.8h-4.3a.75.75 0 01-.69-.58L309.26 89h-.07l-6.12 11.81a.88.88 0 01-.62.4h-.66a.81.81 0 01-.62-.4L295 89h-.08l-1.6 11.26a.71.71 0 01-.69.58h-4.3a.67.67 0 01-.69-.8zM324.3 76.05a.69.69 0 01.7-.69h15.08a.69.69 0 01.69.69v4a.68.68 0 01-.69.69H330v4.52h8.3a.72.72 0 01.7.7v4a.69.69 0 01-.7.69H330v4.92h10.09a.68.68 0 01.69.69v4a.69.69 0 01-.69.69H325a.69.69 0 01-.7-.69zM348.7 76.05a.69.69 0 01.7-.69h10.89a7.78 7.78 0 012.55 15.19l5 9.26a.69.69 0 01-.62 1h-4.85a.66.66 0 01-.58-.33l-4.84-9.65h-2.52v9.29a.72.72 0 01-.69.69h-4.34a.69.69 0 01-.7-.69zm11.11 10.2a2.91 2.91 0 002.77-2.91 2.79 2.79 0 00-2.77-2.77h-5.39v5.68z" transform="translate(-11.48 -8.57)"/><rect class="cls-1" x="364.68" y="66.79" width="5.76" height="25.5" rx=".69"/><path class="cls-1" d="M402.52 75a12.28 12.28 0 018.82 3.39.68.68 0 010 1l-2.84 2.95a.63.63 0 01-.91 0 7.45 7.45 0 00-4.92-1.85 7.46 7.46 0 000 14.9 7.7 7.7 0 004.88-1.75.72.72 0 01.95 0l2.84 3a.72.72 0 010 1 12.47 12.47 0 01-8.85 3.54 13.12 13.12 0 110-26.24M415.52 99.92l11.4-24.52a.74.74 0 01.62-.4h.36a.73.73 0 01.62.4l11.41 24.52a.64.64 0 01-.62.94h-4.05c-.65 0-.94-.22-1.27-.91l-1.31-2.88h-9.91l-1.31 2.93a1.36 1.36 0 01-1.31.87h-4a.64.64 0 01-.62-.94m15-7.8l-2.77-6-2.74 6zM207.36 89.48a8.09 8.09 0 011-3.65 8.24 8.24 0 013.13-3.25 9.53 9.53 0 015.05-1.29q3.65 0 5.35 1.73a5.75 5.75 0 011.71 4.19 7.85 7.85 0 01-2.6 5.87 9.37 9.37 0 01-6.7 2.48 8 8 0 01-4.94-1.49 5.41 5.41 0 01-2-4.59m4.74 1.63a3.58 3.58 0 00.54 2.16 1.92 1.92 0 001.63.72q2 0 3.27-3a13.72 13.72 0 001.27-5.12 3.53 3.53 0 00-.6-2.29 1.8 1.8 0 00-1.4-.72q-2.15 0-3.42 3.17a14.5 14.5 0 00-1.29 5.1" transform="translate(-11.48 -8.57)"/><path class="cls-1" d="M233.17 83.6l-1.62 7.25q-1.41 6.29-3.75 9.37a7.54 7.54 0 01-6.35 3.09 4.33 4.33 0 01-2.79-.73 2.19 2.19 0 01-.88-1.76 2.08 2.08 0 01.69-1.58 2.3 2.3 0 011.59-.64 2 2 0 012.17 2c.1.68.39 1 .89 1s1-.45 1.38-1.36a31.89 31.89 0 001.5-5.46l.5-2.34c.15-.56.26-1 .32-1.33l1.63-7.51h-2.1l.55-1.79h1.93q1.52-5.53 3.55-7.34a7.06 7.06 0 014.85-1.8 5.82 5.82 0 013.06.72 2.22 2.22 0 011.19 2 2 2 0 01-.57 1.41 1.92 1.92 0 01-1.47.61c-.85 0-1.58-.6-2.2-1.8-.45-.89-.91-1.34-1.37-1.34s-1 .72-1.25 2.15l-1.07 5.44H236l-.55 1.79z" transform="translate(-11.48 -8.57)"/><path class="cls-2" d="M313.42 117.11a7.35 7.35 0 017.38-7.54 7.56 7.56 0 015.68 2.31l-1.12 1.21a6.34 6.34 0 00-4.58-2 5.72 5.72 0 00-5.65 6 5.76 5.76 0 005.65 6 6.29 6.29 0 004.7-2.11l1.09 1.07a7.6 7.6 0 01-5.84 2.56 7.28 7.28 0 01-7.31-7.5zM328.46 117.11a7.44 7.44 0 1114.88 0 7.44 7.44 0 11-14.88 0zm13.17 0a5.8 5.8 0 00-5.75-6 5.73 5.73 0 00-5.71 6 5.8 5.8 0 005.75 6 5.73 5.73 0 005.71-6zM346.81 109.78h1.67l5.31 8 5.31-8h1.67v14.58h-1.65v-11.81l-5.31 7.81h-.08l-5.31-7.79v11.79h-1.61zM364.9 109.78h5.45c3.29 0 5.46 1.75 5.46 4.62 0 3.15-2.62 4.77-5.73 4.77h-3.54v5.15h-1.64zm5.24 7.93c2.42 0 4-1.29 4-3.2v-.05c0-2.08-1.56-3.16-3.91-3.16h-3.69v6.41zM382.75 109.67h1.54l6.64 14.69h-1.77l-1.7-3.86h-7.94l-1.73 3.86h-1.69zm4.06 9.35l-3.31-7.43-3.33 7.41zM393.81 109.78h1.54l9.19 11.68v-11.68h1.6v14.58h-1.31l-9.42-12v12h-1.6zM410.41 109.78h1.65v14.58h-1.65zM416.33 109.78h10.54v1.5H418v5h8v1.5h-8v5.11h9v1.5h-10.67zM429.32 122.23l1-1.21a7 7 0 005 2.07c2 0 3.25-1 3.25-2.48 0-1.36-.73-2.13-3.79-2.77-3.35-.73-4.89-1.82-4.89-4.21 0-2.29 2-4 4.79-4a7.59 7.59 0 015.12 1.79l-1 1.27a6.39 6.39 0 00-4.2-1.58c-1.9 0-3.11 1-3.11 2.35 0 1.38.75 2.15 4 2.84s4.75 1.89 4.75 4.12c0 2.5-2.08 4.12-5 4.12a8.55 8.55 0 01-5.92-2.31z" transform="translate(-11.48 -8.57)"/><path stroke-miterlimit="10" stroke="#003259" stroke-width=".4" fill="none" d="M87.93 0v49.98"/><rect class="cls-1" x=".13" width="48.96" height="48.96" rx=".32"/><path fill="#fff" d="M24.61 16.59V9.42l-12.44 7.24v22.86h6.15v-5.97l6.29-3.66v-7.16l-6.29 3.66v-6.14l6.29-3.66z"/><path fill="#03a7da" d="M24.61 16.59V9.42l12.44 7.24v22.86H30.9v-5.96l-6.29-3.67v-7.16l6.29 3.66v-6.14l-6.29-3.66z"/><path stroke-width=".5" stroke="#00a7db" stroke-miterlimit="10" fill="none" d="M0 108.87h292.53"/><path class="cls-7" d="M131.76 54.14l9.07-15.69s-.5 5.57 1.9 9.31z" transform="translate(-11.48 -8.57)"/><path class="cls-7" d="M159.93 39.18l10.96 6.39"/><path class="cls-7" d="M171.45 47.75l10.86 6.32-9-15.51c.09.81.31 5.78-1.86 9.19zM156.46 11.58l-8.89 15.3a15.42 15.42 0 018.89-3zM158.1 23.85a15.67 15.67 0 018.65 3l-8.88-15.3v12.3z" transform="translate(-11.48 -8.57)"/><path class="cls-7" d="M181.31 55.1L169.37 48a13 13 0 002.5-7.76 14.8 14.8 0 10-29.6 0 14.16 14.16 0 002.3 8L133 55.1z" transform="translate(-11.48 -8.57)"/><path class="cls-8" d="M164.08 34.77c0-.31-.09-.65-.15-1l-.93-.07v1.08z" transform="translate(-11.48 -8.57)"/><path stroke="#00a7db" fill="#fff" stroke-miterlimit="10" d="M138.74 29.23l6.98-6.92 3.09 3.15v-1.81h2.62v4.45l1.17 1.19v9.9h-13.86v-9.96z"/></svg>