<?xml version="1.0" encoding="UTF-8"?>
<svg width="157px" height="67px" viewBox="0 0 157 67" version="1.1" xmlns="http://www.w3.org/2000/svg" xmlns:xlink="http://www.w3.org/1999/xlink">
    <!-- Generator: Sketch 47 (45396) - http://www.bohemiancoding.com/sketch -->
    <title>logo</title>
    <desc>Created with Sketch.</desc>
    <defs></defs>
    <g id="Symbols" stroke="none" stroke-width="1" fill="none" fill-rule="evenodd">
        <g id="background" transform="translate(-32.000000, -21.000000)">
            <g id="logo">
                <g transform="translate(32.000000, 21.000000)">
                    <path d="M90.3688042,33.147002 C88.5481319,34.094198 86.5493504,34.4883157 84.4885605,34.4883157 C80.1149891,34.4883157 76.9274933,31.629649 76.9274933,27.1551 C76.9261739,22.680551 80.1149891,19.8218843 84.4872412,19.8218843 C86.7063504,19.8218843 88.6655521,20.3158451 90.0719555,21.6151196 L87.8937454,23.9811392 C87.0625689,23.1140804 86.0532832,22.6608451 84.4872412,22.6608451 C81.8565017,22.6608451 80.134779,24.5539235 80.134779,27.1551 C80.134779,29.7562765 81.8565017,31.6493549 84.4885605,31.6493549 C85.8342748,31.6493549 86.8250899,31.2749431 87.3989975,30.959649 L87.3989975,28.6921588 L84.8856782,28.6921588 L84.8856782,25.8545118 L90.3688042,25.8545118 L90.3688042,33.147002 Z" id="Fill-1" fill="#DB4128"></path>
                    <path d="M93.1999496,24.5540549 L96.168437,24.5540549 L96.168437,26.0911137 L96.2066975,26.0911137 C96.8426134,24.9284667 97.6724706,24.3162706 98.978605,24.3162706 C99.3163529,24.3162706 99.691042,24.3346627 99.9694202,24.4148 L99.9694202,27.1158196 C99.5551513,26.9975843 99.1369244,26.9187608 98.7041849,26.9187608 C96.4468151,26.9187608 96.168437,28.219349 96.168437,30.1308196 L96.168437,34.1324275 L93.1999496,34.1324275 L93.1999496,24.5540549 Z" id="Fill-3" fill="#DB4128"></path>
                    <path d="M107.056453,29.9350745 C106.144797,29.9350745 104.126226,30.013898 104.126226,31.3144863 C104.126226,32.0252118 104.878243,32.358898 105.532629,32.358898 C106.700234,32.358898 107.787361,31.7480157 107.787361,30.5656627 L107.787361,29.9350745 L107.056453,29.9350745 Z M107.787361,32.9303686 L107.7491,32.9303686 C107.094713,33.9550745 105.907318,34.3702118 104.700134,34.3702118 C102.899251,34.3702118 101.276478,33.3455059 101.276478,31.4130157 C101.276478,28.1011137 105.313621,28.0419961 107.787361,28.0419961 C107.787361,26.9975843 106.916604,26.3262706 105.887529,26.3262706 C104.919142,26.3262706 104.106436,26.7611137 103.474478,27.4705255 L101.888646,25.8546431 C102.978411,24.8299373 104.561604,24.3162706 106.125008,24.3162706 C109.590882,24.3162706 110.519688,26.0700941 110.519688,29.2650745 L110.519688,34.1324275 L107.787361,34.1324275 L107.787361,32.9303686 Z" id="Fill-5" fill="#DB4128"></path>
                    <path d="M112.876008,24.5540549 L115.727075,24.5540549 L115.727075,25.8546431 L115.766655,25.8546431 C116.162453,25.1058196 117.132159,24.3162706 118.578142,24.3162706 C121.586209,24.3162706 122.141646,26.2868588 122.141646,28.8499373 L122.141646,34.1324275 L119.17052,34.1324275 L119.17052,29.4411137 C119.17052,28.3375843 119.15205,26.9187608 117.626907,26.9187608 C116.083293,26.9187608 115.845814,28.1208196 115.845814,29.3636039 L115.845814,34.1324275 L112.876008,34.1324275 L112.876008,24.5540549 Z" id="Fill-7" fill="#DB4128"></path>
                    <path d="M129.721712,26.9186294 C128.237468,26.9186294 127.345603,27.9052373 127.345603,29.3424529 C127.345603,30.7822961 128.237468,31.7675902 129.721712,31.7675902 C131.207275,31.7675902 132.097821,30.7822961 132.097821,29.3424529 C132.097821,27.9052373 131.207275,26.9186294 129.721712,26.9186294 L129.721712,26.9186294 Z M134.828829,34.1322961 L132.097821,34.1322961 L132.097821,32.8724333 L132.058241,32.8724333 C131.603073,33.5621392 130.453939,34.3700804 129.108224,34.3700804 C126.257157,34.3700804 124.377115,32.3193549 124.377115,29.4212765 C124.377115,26.7609824 126.039468,24.3161392 128.771796,24.3161392 C129.997451,24.3161392 131.146586,24.6524529 131.820762,25.5773157 L131.859023,25.5773157 L131.859023,19.2320216 L134.828829,19.2320216 L134.828829,34.1322961 Z" id="Fill-9" fill="#DB4128"></path>
                    <path d="M140.167489,30.3959294 C139.874598,30.6245176 139.737388,31.0816941 139.737388,31.4285176 C139.737388,31.8305176 139.920775,32.3875373 140.406287,32.3875373 C141.591044,32.3875373 140.828472,29.4093216 143.104313,29.4093216 C144.551615,29.4093216 145.240304,30.5693412 145.240304,31.9040863 C145.240304,32.7356745 144.99359,33.4647922 144.42496,34.078302 L143.30485,33.0641059 C143.690094,32.7711451 143.919657,32.2968902 143.919657,31.8213216 C143.919657,31.3562627 143.700649,30.8360275 143.240203,30.8360275 C142.04885,30.8360275 142.691363,33.8667922 140.527666,33.8667922 C139.141052,33.8667922 138.416741,32.671302 138.416741,31.4009294 C138.416741,30.6691843 138.609363,29.9663412 139.096195,29.4185176 L140.167489,30.3959294 Z" id="Fill-11" fill="#DB4128"></path>
                    <polygon id="Fill-13" fill="#DB4128" points="139.848476 26.6418275 139.848476 28.486298 138.581921 28.486298 138.581921 23.3719647 139.848476 23.3719647 139.848476 25.217749 145.076971 25.217749 145.076971 26.6418275"></polygon>
                    <path d="M143.442588,22.5127882 C143.442588,22.0464157 143.819916,21.6706902 144.286958,21.6706902 C144.754,21.6706902 145.131328,22.0464157 145.131328,22.5127882 C145.131328,22.9765333 144.754,23.3535725 144.286958,23.3535725 C143.819916,23.3535725 143.442588,22.9765333 143.442588,22.5127882" id="Fill-15" fill="#DB4128"></path>
                    <path d="M82.2864706,41.9948118 C82.022605,41.6558706 81.490916,41.4969098 81.088521,41.4969098 C80.6201597,41.4969098 79.9710504,41.7084196 79.9710504,42.2706941 C79.9710504,43.6330275 83.435605,42.7554588 83.435605,45.3789686 C83.435605,47.0513412 82.0859328,47.8435176 80.537042,47.8435176 C79.5673361,47.8435176 78.7190084,47.5597529 78.0052521,46.9028902 L79.1847311,45.6128118 C79.5251176,46.0581647 80.0792353,46.3209098 80.6307143,46.3209098 C81.172958,46.3209098 81.7772101,46.0673608 81.7772101,45.5379294 C81.7772101,44.1637725 78.2506471,44.9034 78.2506471,42.4073216 C78.2506471,40.8111451 79.6425378,39.974302 81.1175462,39.974302 C81.9685126,39.974302 82.7878151,40.1963216 83.4250504,40.7572824 L82.2864706,41.9948118 Z" id="Fill-17" fill="#974E3A"></path>
                    <polygon id="Fill-19" fill="#974E3A" points="85.792584 40.1647922 90.9023403 40.1647922 90.9023403 41.6887137 87.4496597 41.6887137 87.4496597 43.0838902 90.7110378 43.0838902 90.7110378 44.6078118 87.4496597 44.6078118 87.4496597 46.1317333 91.0936429 46.1317333 91.0936429 47.6543412 85.792584 47.6543412"></polygon>
                    <polygon id="Fill-21" fill="#974E3A" points="94.9376361 41.6238157 92.7937286 41.6238157 92.7937286 40.1642667 98.7425773 40.1642667 98.7425773 41.6238157 96.5973504 41.6238157 96.5973504 47.6551294 94.9376361 47.6551294"></polygon>
                    <polygon id="Fill-23" fill="#974E3A" points="102.098551 41.6238157 99.952005 41.6238157 99.952005 40.1642667 105.900854 40.1642667 105.900854 41.6238157 103.755627 41.6238157 103.755627 47.6551294 102.098551 47.6551294"></polygon>
                    <polygon id="Fill-25" fill="#974E3A" points="107.864013 40.1647922 109.522408 40.1647922 109.522408 46.1317333 112.592484 46.1317333 112.592484 47.6543412 107.864013 47.6543412"></polygon>
                    <polygon id="Fill-27" fill="#974E3A" points="114.630186 40.1647922 119.741261 40.1647922 119.741261 41.6887137 116.288581 41.6887137 116.288581 43.0838902 119.548639 43.0838902 119.548639 44.6078118 116.288581 44.6078118 116.288581 46.1317333 119.931245 46.1317333 119.931245 47.6543412 114.630186 47.6543412"></polygon>
                    <polygon id="Fill-29" fill="#974E3A" points="122.320943 40.1647922 124.827666 40.1647922 126.559943 45.0505373 126.579733 45.0505373 128.322565 40.1647922 130.818733 40.1647922 130.818733 47.6543412 129.161657 47.6543412 129.161657 41.9107333 129.141867 41.9107333 127.166834 47.6543412 125.901598 47.6543412 123.997808 41.9107333 123.978018 41.9107333 123.978018 47.6543412 122.320943 47.6543412"></polygon>
                    <polygon id="Fill-31" fill="#974E3A" points="133.472692 40.1647922 138.583768 40.1647922 138.583768 41.6887137 135.131087 41.6887137 135.131087 43.0838902 138.393785 43.0838902 138.393785 44.6078118 135.131087 44.6078118 135.131087 46.1317333 138.775071 46.1317333 138.775071 47.6543412 133.472692 47.6543412"></polygon>
                    <polygon id="Fill-33" fill="#974E3A" points="141.164241 40.1647922 143.416334 40.1647922 146.615703 45.3684588 146.635493 45.3684588 146.635493 40.1647922 148.292569 40.1647922 148.292569 47.6543412 146.126233 47.6543412 142.842426 42.3219294 142.821317 42.3219294 142.821317 47.6543412 141.164241 47.6543412"></polygon>
                    <polygon id="Fill-35" fill="#974E3A" points="152.338683 41.6238157 150.193456 41.6238157 150.193456 40.1642667 156.142305 40.1642667 156.142305 41.6238157 153.997078 41.6238157 153.997078 47.6551294 152.338683 47.6551294"></polygon>
                    <polygon id="Fill-37" fill="#974E3A" points="33.7379807 29.2106863 26.9579555 10.1853137 29.8116613 9.17768627 34.125863 21.2928627 44.1633084 0 46.9022328 1.28219608"></polygon>
                    <path d="M36.8800916,10.6342137 C36.8800916,11.8822529 35.8628899,12.8938216 34.6082092,12.8938216 C33.3548479,12.8938216 32.3389655,11.8822529 32.3389655,10.6342137 C32.3389655,9.38486078 33.3548479,8.37329216 34.6082092,8.37329216 C35.8628899,8.37329216 36.8800916,9.38486078 36.8800916,10.6342137" id="Fill-39" fill="#974E3A"></path>
                    <polygon id="Fill-41" fill="#F9A526" points="36.5411563 30.6225471 45.2579546 12.3959196 47.9916017 13.6899392 42.4385513 25.2967039 64.6547109 17.3105667 65.6837866 20.1442725"></polygon>
                    <path d="M51.4482403,20.2689451 C50.5629714,21.1517686 49.1262235,21.1517686 48.2396353,20.2689451 C47.3543664,19.3848078 47.3543664,17.9554745 48.2396353,17.0713373 C49.1249042,16.1898275 50.5629714,16.1898275 51.4482403,17.0713373 C52.3374672,17.9554745 52.3374672,19.3861216 51.4482403,20.2689451" id="Fill-43" fill="#F9A526"></path>
                    <polygon id="Fill-45" fill="#008999" points="65.5688731 46.7059627 37.5226042 33.5949824 56.6277891 26.8437471 57.6397134 29.6840216 45.4741924 33.9825314 66.856537 43.9786686"></polygon>
                    <path d="M55.1680849,36.721649 C53.9160429,36.721649 52.8975218,35.7100804 52.8975218,34.4620412 C52.8975218,33.214002 53.9160429,32.2024333 55.1667655,32.2011196 C56.4214462,32.2011196 57.4399672,33.214002 57.4399672,34.4620412 C57.4373286,35.7113941 56.4214462,36.721649 55.1680849,36.721649" id="Fill-47" fill="#008999"></path>
                    <polygon id="Fill-49" fill="#DB4128" points="46.6251739 65.4048745 36.1048546 36.3873059 54.4078882 45.0657765 53.1070311 47.7891294 41.4520899 42.2609725 49.4736025 64.3814824"></polygon>
                    <path d="M46.2213277,50.8698157 C45.3347395,49.9883059 45.3347395,48.5576588 46.2213277,47.6735216 C47.1065966,46.790698 48.5420252,46.790698 49.4286134,47.6708941 C50.3152017,48.5550314 50.3152017,49.9869922 49.4286134,50.8698157 C48.5420252,51.7526392 47.1065966,51.7526392 46.2213277,50.8698157" id="Fill-51" fill="#DB4128"></path>
                    <polygon id="Fill-53" fill="#974E3A" points="22.6913815 66.5713314 19.9537765 65.290449 33.1193479 37.3632725 39.8980538 56.3886451 37.0469866 57.3962725 32.7301462 45.2810961"></polygon>
                    <path d="M30.0583756,54.9346137 C30.0583756,53.6878882 31.0755773,52.6763196 32.330258,52.6763196 C33.5836193,52.6763196 34.5995017,53.6878882 34.600821,54.9333 C34.600821,56.1826529 33.5836193,57.1942216 32.330258,57.1942216 C31.0729387,57.1942216 30.0583756,56.1826529 30.0583756,54.9346137" id="Fill-55" fill="#974E3A"></path>
                    <polygon id="Fill-57" fill="#F9A526" points="21.597395 54.1788275 18.8650672 52.8821804 24.415479 41.2767294 2.198 49.2641804 1.17288235 46.4304745 30.3141933 35.9522"></polygon>
                    <path d="M15.1238496,46.3876471 C16.0104378,45.5048235 17.4458664,45.5048235 18.3337739,46.3876471 C19.2203622,47.2704706 19.2203622,48.7024314 18.3377319,49.5826275 C17.4498244,50.4667647 16.0117571,50.4667647 15.1238496,49.5826275 C14.2372613,48.7011176 14.2372613,47.2691569 15.1238496,46.3876471" id="Fill-59" fill="#F9A526"></path>
                    <polygon id="Fill-61" fill="#008999" points="10.2274286 39.731 9.21418487 36.8907255 21.3823445 32.590902 0 22.5960784 1.28634454 19.8687843 29.3352521 32.9797647"></polygon>
                    <path d="M10.6798261,29.5703843 C11.9331874,29.5703843 12.9490697,30.5832667 12.9477504,31.8299922 C12.9490697,33.0806588 11.9331874,34.0922275 10.6798261,34.0935412 C9.42514538,34.0935412 8.40926303,33.0806588 8.40926303,31.8299922 C8.40926303,30.5819529 9.42514538,29.5703843 10.6798261,29.5703843" id="Fill-63" fill="#008999"></path>
                    <polygon id="Fill-65" fill="#DB4128" points="30.7511546 30.1865216 12.4468017 21.5067373 13.7502975 18.7873255 25.4052387 24.3141686 17.3824067 2.19103137 20.2281966 1.16763922"></polygon>
                    <path d="M19.6297496,14.6992745 C20.5136992,15.5807843 20.5136992,17.0127451 19.6297496,17.8942549 C18.7405227,18.7783922 17.3037748,18.7783922 16.4171866,17.8968824 C15.5319176,17.0153725 15.5319176,15.582098 16.4185059,14.6992745 C17.3037748,13.816451 18.7405227,13.816451 19.6297496,14.6992745" id="Fill-67" fill="#DB4128"></path>
                </g>
            </g>
        </g>
    </g>
</svg>