<svg xmlns="http://www.w3.org/2000/svg" width="360" height="45" version="1.0"><path d="M281.219 11.625c-1.27 0-2.317.428-3.156 1.281-.84.854-1.25 1.817-1.25 2.906 0 1.383.614 2.92 1.843 4.626-2.04 1.362-3.434 2.511-4.156 3.406-.72.897-1.063 1.993-1.063 3.312 0 1.154.297 2.152.875 3.032.578.88 1.3 1.575 2.22 2.062.92.487 1.896.75 2.906.75 2.058 0 4.025-1.04 5.875-3.094C286.868 31.96 288.67 33 290.719 33c.945 0 1.78-.283 2.5-.813a3.664 3.664 0 001.406-2.093h-.75c-.535.944-1.295 1.437-2.281 1.437-.725 0-1.39-.224-2.031-.656-.64-.43-1.533-1.454-2.657-3.063.472-.626.998-1.6 1.563-2.937.671-1.62 1.334-2.727 1.969-3.313a5.21 5.21 0 012.218-1.218v-.75h-6.75v.75c1.653.188 2.469.86 2.469 2.062 0 .501-.185 1.202-.531 2.094-.346.894-.81 1.757-1.406 2.594a388.079 388.079 0 00-5.282-7.313c3.016-1.517 4.5-3.074 4.5-4.687 0-1.037-.431-1.893-1.344-2.531-.913-.64-1.96-.938-3.093-.938zm28.687.094c-1.836 0-3.526.42-5.062 1.281-1.537.862-2.735 2.19-3.594 3.969-.858 1.778-1.281 3.673-1.281 5.687 0 3.068.92 5.542 2.781 7.407 1.86 1.864 4.285 2.78 7.219 2.78 2.776 0 5.057-1.015 6.844-3.03.472.622.786 1.34.968 2.156h.688v-7.157h-.688c-.12 1.183-.523 2.421-1.187 3.688-.663 1.268-1.551 2.157-2.688 2.688-1.14.53-2.254.78-3.344.78-2.036 0-3.755-.806-5.125-2.437-1.366-1.632-2.03-3.97-2.03-7.031 0-3.232.622-5.733 1.874-7.469 1.255-1.738 2.934-2.594 5.063-2.594 1.737 0 3.303.545 4.687 1.626 1.385 1.08 2.3 2.98 2.75 5.718h.688l-.188-7.718h-.687a7.346 7.346 0 01-.781 2.656c-.609-.758-1.55-1.44-2.782-2.063-1.233-.623-2.609-.937-4.125-.937zm-120 .062c-1.836 0-3.526.42-5.062 1.281-1.538.862-2.735 2.19-3.594 3.97-.859 1.778-1.281 3.671-1.281 5.687 0 3.067.92 5.54 2.781 7.406 1.86 1.865 4.252 2.781 7.188 2.781 2.773 0 5.058-.983 6.843-3 .475.625.82 1.34 1 2.157h.688v-7.188h-.688c-.12 1.183-.522 2.42-1.187 3.688-.663 1.267-1.55 2.157-2.688 2.687-1.14.53-2.255.813-3.344.813-2.036 0-3.756-.84-5.125-2.47-1.368-1.631-2.03-3.97-2.03-7.03 0-3.233.62-5.702 1.874-7.438 1.254-1.737 2.936-2.625 5.063-2.625 1.739 0 3.305.544 4.687 1.625 1.384 1.08 2.3 2.98 2.75 5.719h.688l-.188-7.688h-.687c-.092.911-.372 1.775-.813 2.625-.608-.758-1.516-1.44-2.75-2.062-1.23-.624-2.608-.938-4.125-.938zm-148.656.063c-1.15 0-2.758.045-4.813.125l-2.562.094v.687h.375c1.04 0 1.718.1 2.031.281.314.182.503.496.594.969.09.473.156 1.53.156 3.156v10c0 1.708-.065 2.814-.156 3.282-.09.467-.287.81-.625 1.03-.338.222-.965.313-1.844.313h-.531v.688h9.406v-.688h-.687c-.919 0-1.542-.1-1.875-.343-.334-.242-.55-.627-.625-1.125-.077-.5-.094-1.545-.094-3.157v-4.312h2.25c2.343 0 3.977-.216 4.906-.657a4.744 4.744 0 002.125-1.937c.498-.854.75-1.854.75-2.969 0-1.284-.363-2.344-1.093-3.187-.731-.844-1.67-1.419-2.813-1.75-1.143-.332-2.76-.5-4.875-.5zm-19.344.219v.687h.469c1.036 0 1.694.1 2 .281.307.18.53.499.625.969.095.471.125 1.533.125 3.156v6.938c0 2.274-.058 3.92-.219 4.906-.158.989-.657 1.836-1.437 2.563-.78.726-1.736 1.093-2.875 1.093-.56 0-1.026-.102-1.407-.281-.378-.18-.562-.43-.562-.75 0-.12.046-.292.156-.531.122-.27.188-.531.188-.782 0-.42-.14-.772-.438-1.062-.297-.29-.68-.437-1.125-.438-.434 0-.795.177-1.093.5-.298.324-.438.714-.438 1.188 0 .785.42 1.461 1.25 2.031.832.569 1.99.844 3.531.844 1.372 0 2.59-.226 3.625-.688 1.036-.462 1.88-1.112 2.5-1.968.62-.858.989-1.753 1.125-2.657.135-.902.188-2.21.188-3.937v-6.969c0-1.695.055-2.767.156-3.218.1-.452.314-.774.625-.938.31-.167.967-.25 1.969-.25h.5v-.688h-9.438zm30.875 0v.687h.563c1.04 0 1.691.1 2 .281.308.182.53.496.625.969.096.473.125 1.53.125 3.156v8.875c0 1.687-.035 2.846-.157 3.469-.12.622-.48 1.17-1.03 1.594-.55.426-1.246.638-2.126.687v.688h7.344v-.688c-.944-.06-1.666-.304-2.188-.75-.523-.446-.837-.97-.937-1.562-.1-.593-.156-1.708-.156-3.344V14.187l8.125 18.282h.719l8.03-18.282v13c0 1.708-.03 2.783-.124 3.25-.095.468-.319.81-.656 1.032-.34.22-.943.312-1.813.312h-.719v.688h9.813v-.688h-.906c-.926 0-1.55-.102-1.876-.343-.328-.241-.545-.598-.624-1.094-.081-.497-.125-1.581-.126-3.188v-10c0-1.696.05-2.766.157-3.218.104-.452.313-.773.625-.938.311-.165.995-.25 2-.25h.75v-.688h-6.313L66.5 28.97 59 12.062h-6.219zm228.5.343c.767 0 1.374.26 1.844.781.467.523.719 1.185.719 2.032 0 1.42-1.064 2.747-3.156 3.969-1.286-1.765-1.907-3.164-1.907-4.188 0-.742.228-1.343.688-1.844.458-.5 1.052-.75 1.812-.75zm-239.719.156c1.862 0 3.203.397 4.032 1.188.829.79 1.25 2.028 1.25 3.719 0 1.108-.237 2.058-.719 2.812-.483.755-1.09 1.23-1.813 1.469-.724.236-1.667.375-2.843.375H40v-9.5c.362-.04.88-.063 1.563-.063zm202.063 3.876c-1.194 0-2.158.348-2.938 1.093-.778.745-1.187 1.694-1.187 2.813 0 .734.204 1.415.563 2.062.358.649.83 1.19 1.468 1.594.639.406 1.617.867 2.875 1.406 1.411.603 2.376 1.164 2.906 1.688.532.531.782 1.182.782 1.968 0 .78-.302 1.497-.906 2.125-.606.63-1.46.938-2.563.938-2.453 0-4-1.65-4.656-4.938h-.594v5.063h.594c.123-.657.305-1.17.562-1.531 1.153 1.319 2.589 1.969 4.313 1.968 1.5 0 2.697-.41 3.594-1.25.896-.842 1.343-1.938 1.343-3.28 0-.85-.193-1.602-.562-2.25a4.038 4.038 0 00-1.469-1.5c-.615-.367-1.616-.865-2.969-1.47-1.414-.637-2.364-1.213-2.906-1.718-.552-.497-.844-1.094-.844-1.813 0-.595.218-1.154.656-1.656.44-.5 1.122-.75 2.063-.75.988 0 1.877.352 2.625 1.031.751.682 1.267 1.596 1.563 2.782h.5v-4.094h-.5c-.045.493-.239.951-.594 1.375-.62-.678-1.225-1.129-1.813-1.344a5.534 5.534 0 00-1.906-.313zm-153.781.03c-2.42 0-4.414.722-6.031 2.188-1.618 1.466-2.438 3.421-2.438 5.844 0 2.485.812 4.465 2.406 5.969 1.595 1.506 3.636 2.281 6.125 2.281 2.556 0 4.62-.775 6.188-2.281 1.567-1.504 2.344-3.445 2.344-5.875 0-2.508-.833-4.486-2.47-5.938-1.637-1.45-3.683-2.187-6.124-2.187zm36.281 0c-2.443 0-4.358.842-5.781 2.532-1.423 1.689-2.156 3.662-2.156 5.906 0 2.269.762 4.148 2.25 5.625 1.486 1.478 3.35 2.219 5.593 2.219 1.117 0 2.314-.259 3.625-.75.963-.36 1.751-.531 2.344-.531.147 0 .317 0 .5.031v-1.656c0-1.357.04-2.21.125-2.563.084-.35.264-.63.531-.781.266-.15.783-.219 1.531-.219v-.531h-6.78v.531h.374c.623 0 1.049.06 1.281.157.233.095.388.28.5.562.113.282.188.844.188 1.688 0 .718-.135 1.31-.375 1.78-.237.472-.66.86-1.313 1.188-.654.33-1.389.5-2.187.5-1.56 0-2.885-.558-3.938-1.718-1.053-1.159-1.562-3.155-1.562-5.938 0-2.79.561-4.718 1.656-5.813 1.095-1.093 2.37-1.656 3.844-1.656 1.426 0 2.626.47 3.625 1.407 1 .937 1.62 2.207 1.844 3.812h.531V17h-.531a5.625 5.625 0 01-.5 1.781c-1.378-1.539-3.117-2.312-5.219-2.312zm204.656 0c-2.42 0-4.413.722-6.031 2.188-1.618 1.466-2.437 3.421-2.438 5.844 0 2.485.78 4.465 2.375 5.969 1.595 1.506 3.637 2.281 6.125 2.281 2.559 0 4.62-.775 6.188-2.281 1.567-1.504 2.375-3.445 2.375-5.875 0-2.508-.832-4.486-2.469-5.938-1.637-1.45-3.685-2.187-6.125-2.187zm-101.687.032l-4.563 10.875c-.328.782-.545 1.229-.594 1.344-.484 1.23-.877 2.024-1.218 2.406-.341.383-.864.642-1.563.75v.531h4.719v-.531c-.509 0-.928-.131-1.25-.375-.318-.243-.469-.591-.469-1.063 0-.44.305-1.367.906-2.812l.407-1h5.937l1.219 2.906c.355.842.531 1.33.531 1.5 0 .332-.141.576-.406.688-.267.111-.778.156-1.531.156v.531h6.156v-.531c-.55-.054-.945-.193-1.219-.406a2.183 2.183 0 01-.656-.875l-.719-1.625-5.219-12.469h-.468zm-122.75.063c-.879 0-2.069.028-3.563.093l-2.219.094v.531h.25c.809 0 1.35.08 1.594.219.242.139.399.388.469.75.071.362.094 1.157.094 2.406v7.719c0 1.311-.024 2.14-.094 2.5-.069.359-.24.613-.5.781-.258.17-.734.25-1.406.25h-.5v.532H108v-.532h-.75c-.712 0-1.218-.096-1.469-.281-.252-.184-.412-.463-.469-.844-.057-.377-.062-1.18-.062-2.406v-3.438h.625c.421 0 .706.078.906.22.198.141.565.506 1.094 1.155.528.647 1.04 1.326 1.531 2.032 1.533 2.207 2.694 3.567 3.438 4.093h4.187v-.53c-.917-.031-1.701-.289-2.375-.782-.671-.495-1.598-1.537-2.781-3.125-1.453-1.962-2.533-3.092-3.188-3.406 1.453-.177 2.565-.618 3.313-1.344a3.582 3.582 0 001.125-2.656c0-.88-.297-1.617-.875-2.25-.578-.636-1.316-1.096-2.25-1.375-.936-.278-2.163-.407-3.656-.407zm37.406 0l-4.594 10.843c-.329.781-.51 1.23-.562 1.344-.481 1.23-.908 2.056-1.25 2.438-.343.382-.834.61-1.531.718v.532h4.718v-.532c-.51 0-.93-.1-1.25-.343-.32-.244-.468-.623-.469-1.094 0-.441.304-1.368.907-2.813l.406-1h5.938l1.187 2.907c.354.842.563 1.361.563 1.53 0 .332-.14.545-.407.657-.266.112-.776.156-1.531.156v.532h6.156v-.532c-.548-.054-.945-.161-1.219-.375a2.183 2.183 0 01-.656-.875L149.437 29l-5.218-12.438h-.469zm58.375.156v.531h.313c.8 0 1.293.08 1.53.219.237.139.398.387.47.75.074.362.125 1.158.125 2.406v7.688c0 1.312-.051 2.17-.125 2.53-.072.36-.241.614-.5.782-.26.17-.73.25-1.407.25h-.406v.531h7.125v-.531h-.406c-.711 0-1.215-.096-1.469-.281-.254-.186-.407-.462-.469-.844-.062-.383-.094-1.2-.094-2.438v-3.78H215v3.78c0 1.315-.024 2.14-.094 2.5-.069.36-.245.642-.5.813-.257.17-.716.25-1.375.25h-.531v.531h7.094v-.531h-.344c-.7 0-1.183-.096-1.438-.281-.253-.185-.41-.462-.468-.844-.06-.382-.094-1.203-.094-2.438v-7.687c0-1.302.045-2.122.125-2.469.082-.346.231-.593.469-.718.24-.128.761-.188 1.531-.188h.219v-.531H212.5v.531h.406c.789 0 1.297.08 1.531.219.235.139.4.387.47.75.07.362.093 1.158.093 2.406v3.125h-8.188v-3.125c0-1.302.043-2.122.125-2.469.083-.346.258-.593.5-.718.242-.128.727-.188 1.5-.188h.313v-.531h-7.125zm50.625 0v.531c.762 0 1.262.068 1.5.219.237.148.403.404.469.781.068.377.094 1.18.094 2.375v7.688c0 1.31-.033 2.148-.094 2.468-.063.32-.211.573-.438.782-.226.207-.696.312-1.469.312h-.343v.531h12.937l.344-4.875h-.531c-.278 1.175-.676 2.092-1.156 2.75-.48.66-.972 1.09-1.5 1.282-.533.19-1.208.28-2.032.28h-1.156c-1.048 0-1.698-.172-1.938-.5-.238-.326-.343-1.423-.343-3.28v-3.72h1.687c.667 0 1.157.067 1.438.157.28.089.48.266.625.563.145.298.218.879.219 1.75h.53v-5.344h-.53c0 .769-.06 1.298-.157 1.562-.096.266-.293.463-.594.594-.301.131-.835.188-1.593.188h-1.625V17.25h2.156c1.087 0 1.853.068 2.344.188.49.12.924.386 1.281.843.354.459.661 1.251.906 2.344h.531l-.375-3.906H252.75zm-98.688.031v.531c.847 0 1.38.072 1.625.188.245.116.42.373.532.781.112.408.187 1.202.187 2.406V29c0 .948-.053 1.526-.125 1.781-.073.254-.296.498-.687.719-.39.22-.945.352-1.688.406v.532h5.813v-.532c-.83 0-1.43-.104-1.844-.343-.415-.239-.692-.495-.781-.782-.089-.285-.125-.879-.125-1.781V18.094l11.156 14.718h.469v-13c0-.671.053-1.124.156-1.406.103-.28.343-.55.719-.75.378-.2.906-.32 1.562-.375v-.531h-5.656v.531c.617 0 1.124.088 1.563.25.44.162.732.38.875.657.142.278.218.775.218 1.468v9.375L158.75 16.75h-4.688zm-64.187.281c1.91 0 3.37.669 4.375 1.969s1.5 3.154 1.5 5.594c0 2.509-.512 4.39-1.531 5.656-1.022 1.267-2.399 1.906-4.156 1.906-2.005 0-3.499-.64-4.5-1.906-1.002-1.267-1.5-3.132-1.5-5.656 0-2.486.498-4.387 1.5-5.657 1.001-1.27 2.43-1.906 4.312-1.906zm240.938 0c1.91 0 3.37.669 4.375 1.969 1.007 1.3 1.5 3.154 1.5 5.594 0 2.509-.512 4.39-1.532 5.656-1.021 1.267-2.4 1.906-4.156 1.906-2.005 0-3.53-.64-4.531-1.906-1.002-1.267-1.5-3.132-1.5-5.656 0-2.486.498-4.387 1.5-5.657 1.002-1.27 2.461-1.906 4.344-1.906zm-224.594.094c1.825 0 3.018.336 3.562 1 .544.664.813 1.553.813 2.656 0 .635-.09 1.16-.25 1.594-.161.432-.379.797-.656 1.063-.278.266-.645.455-1.094.593-.449.14-.985.219-1.594.25-.61.03-1.18.049-1.75.063v-7.188c.365-.031.687-.031.969-.031zm122.219 2.281l2.75 6.625h-5.47l2.72-6.625zm-85.344.032l2.75 6.656h-5.5l2.75-6.657zm136.031 1.656c1.596 2.084 3.512 4.794 5.719 8.156-1.244 1.447-2.6 2.188-4.063 2.188-1.318 0-2.519-.57-3.562-1.72-1.044-1.148-1.563-2.395-1.563-3.687 0-.838.302-1.696.906-2.593.602-.898 1.463-1.673 2.563-2.344zm63.281 8.343c-.471 0-.883.164-1.219.5a1.66 1.66 0 00-.5 1.22c0 .46.17.87.5 1.218.33.348.74.5 1.22.5.47 0 .876-.164 1.218-.5.342-.338.5-.738.5-1.219 0-.47-.164-.882-.5-1.218-.34-.337-.736-.5-1.219-.5z"/><path fill="none" d="M0 0h360v45H0z"/></svg>