<svg width="424px" height="80px" viewBox="0 0 424 80" xmlns="http://www.w3.org/2000/svg">
    <title>Jessica James.</title>
    <g id="Page-1" stroke="none" stroke-width="1" fill="none" fill-rule="evenodd">
        <path d="M29.4,2 L29.4,62.8 C29.4,74.6 24.1,79.2 13.8,79.2 C5.3,79.2 0.2,74 0.2,61.3 C0.2,57 0.6,53.8 0.9,52.1 L0.9,52.1 L10.3,52.9 C10,54.8 9.6,57.6 9.6,60.8 C9.6,68.2 11.5,70.1 13.9,70.1 C16.2,70.1 16.9,68.5 16.9,66.2 L16.9,66.2 L16.9,2 L29.4,2 Z M79.1,0.7 C89.7,0.7 92.9,7.3 92.9,17.7 C92.9,21.8 92.6,25.5 92.2,27.9 L92.2,27.9 L82.9,27.1 C83.3,24.9 83.5,22.1 83.5,18.8 C83.5,12.2 82.6,10.1 80,10.1 C77.4,10.1 76.7,12.1 76.7,16.5 L76.7,16.5 L76.7,18.1 C76.7,22.6 78.1,27.3 82.9,33.4 C89.5,41.8 93.5,50.3 93.5,60 L93.5,60 L93.5,61.5 C93.5,73.6 87.9,79.2 78.4,79.2 C68.4,79.2 64.4,73.2 64.4,62.2 C64.4,57.6 64.9,54 65.3,51.9 L65.3,51.9 L74.4,52.7 C74,55 73.7,58.4 73.7,61.1 C73.7,67.5 74.7,69.7 77.6,69.7 C80.2,69.7 81.1,67.6 81.1,62.9 L81.1,62.9 L81.1,60.8 C81.1,55 79.8,49.7 73.2,41.7 C66.8,34 64.4,27.8 64.4,19.1 L64.4,19.1 L64.4,17.9 C64.4,8 68,0.7 79.1,0.7 Z M111,0.7 C121.6,0.7 124.8,7.3 124.8,17.7 C124.8,21.8 124.5,25.5 124.1,27.9 L124.1,27.9 L114.8,27.1 C115.2,24.9 115.4,22.1 115.4,18.8 C115.4,12.2 114.5,10.1 111.9,10.1 C109.3,10.1 108.6,12.1 108.6,16.5 L108.6,16.5 L108.6,18.1 C108.6,22.6 110,27.3 114.8,33.4 C121.4,41.8 125.4,50.3 125.4,60 L125.4,60 L125.4,61.5 C125.4,73.6 119.8,79.2 110.3,79.2 C100.3,79.2 96.3,73.2 96.3,62.2 C96.3,57.6 96.8,54 97.2,51.9 L97.2,51.9 L106.3,52.7 C105.9,55 105.6,58.4 105.6,61.1 C105.6,67.5 106.6,69.7 109.5,69.7 C112.1,69.7 113,67.6 113,62.9 L113,62.9 L113,60.8 C113,55 111.7,49.7 105.1,41.7 C98.7,34 96.3,27.8 96.3,19.1 L96.3,19.1 L96.3,17.9 C96.3,8 99.9,0.7 111,0.7 Z M164,0.7 C172.6,0.7 178.9,4 178.9,17.5 C178.9,22.1 178.6,25.7 178.2,27.9 L178.2,27.9 L168.7,27.1 C169,25.5 169.4,22 169.4,19 C169.4,11.8 168,10.1 165.2,10.1 C162.4,10.1 161,11.4 161,15.4 L161,15.4 L161,64.4 C161,68 162,69.9 165.3,69.9 C167.9,69.9 169.4,67.9 169.4,60.7 C169.4,58.1 169.1,55.1 168.7,53 L168.7,53 L178.1,52.1 C178.5,54.1 179,57.8 179,62 C179,75.8 172.7,79.2 164.2,79.2 C154.5,79.2 148.5,74.3 148.5,63.3 L148.5,63.3 L148.5,17 C148.5,6.1 154.5,0.7 164,0.7 Z M257.9,2 L257.9,62.8 C257.9,74.6 252.6,79.2 242.3,79.2 C233.8,79.2 228.7,74 228.7,61.3 C228.7,57 229.1,53.8 229.4,52.1 L229.4,52.1 L238.8,52.9 C238.5,54.8 238.1,57.6 238.1,60.8 C238.1,68.2 240,70.1 242.4,70.1 C244.7,70.1 245.4,68.5 245.4,66.2 L245.4,66.2 L245.4,2 L257.9,2 Z M391.9,0.7 C402.5,0.7 405.7,7.3 405.7,17.7 C405.7,21.8 405.4,25.5 405,27.9 L405,27.9 L395.7,27.1 C396.1,24.9 396.3,22.1 396.3,18.8 C396.3,12.2 395.4,10.1 392.8,10.1 C390.2,10.1 389.5,12.1 389.5,16.5 L389.5,16.5 L389.5,18.1 C389.5,22.6 390.9,27.3 395.7,33.4 C402.3,41.8 406.3,50.3 406.3,60 L406.3,60 L406.3,61.5 C406.3,73.6 400.7,79.2 391.2,79.2 C381.2,79.2 377.2,73.2 377.2,62.2 C377.2,57.6 377.7,54 378.1,51.9 L378.1,51.9 L387.2,52.7 C386.8,55 386.5,58.4 386.5,61.1 C386.5,67.5 387.5,69.7 390.4,69.7 C393,69.7 393.9,67.6 393.9,62.9 L393.9,62.9 L393.9,60.8 C393.9,55 392.6,49.7 386,41.7 C379.6,34 377.2,27.8 377.2,19.1 L377.2,19.1 L377.2,17.9 C377.2,8 380.8,0.7 391.9,0.7 Z M61.7,2 L61.7,11.8 L48.1,11.8 L48.1,33.3 L59.4,33.3 L59.4,43.3 L48.1,43.3 L48.1,68.2 L61.8,68.2 L61.8,78 L35.6,78 L35.6,2 L61.7,2 Z M142.7,2 L142.7,78 L130.2,78 L130.2,2 L142.7,2 Z M204.7,2 L214.9,78 L202.2,78 L201.2,67.3 L192.7,67.3 L191.7,78 L181.3,78 L190.7,2 L204.7,2 Z M284.6,2 L294.8,78 L282.1,78 L281.1,67.3 L272.6,67.3 L271.6,78 L261.2,78 L270.6,2 L284.6,2 Z M313.3,2 L319.4,50.1 L319.9,50.1 L327.4,2 L341.6,2 L341.6,78 L329.6,78 L329.6,31.6 L329.1,31.6 L322.6,78 L316.1,78 L309.4,31.6 L308.9,31.6 L308.9,78 L298.7,78 L298.7,2 L313.3,2 Z M374.5,2 L374.5,11.8 L360.9,11.8 L360.9,33.3 L372.2,33.3 L372.2,43.3 L360.9,43.3 L360.9,68.2 L374.6,68.2 L374.6,78 L348.4,78 L348.4,2 L374.5,2 Z M423.4,66.5 L423.4,78 L411.7,78 L411.7,66.5 L423.4,66.5 Z M197.1,19.1 L196.7,19.1 L193.6,57.4 L200,57.4 L197.1,19.1 Z M277,19.1 L276.6,19.1 L273.5,57.4 L279.9,57.4 L277,19.1 Z" id="Combined-Shape" fill="#222222"></path>
    </g>
</svg>
